<svg width="70" height="70" viewBox="0 0 70 70" fill="none" xmlns="http://www.w3.org/2000/svg">
<path d="M34.9998 70C54.3297 70 69.9998 54.33 69.9998 35C69.9998 15.67 54.3297 0 34.9998 0C15.6698 0 -0.000244141 15.67 -0.000244141 35C-0.000244141 54.33 15.6698 70 34.9998 70Z" fill="#77B3D4"/>
<path opacity="0.2" d="M38.7188 50.8594L25.5938 15.8594C25.3751 15.2031 24.7188 14.7656 24.0626 14.7656C23.4063 14.7656 22.7501 15.2031 22.5313 15.8594L9.40631 50.8594C9.07818 51.7344 9.51568 52.6094 10.3907 52.9375C11.2657 53.2656 12.1407 52.8281 12.4688 51.9531L17.6094 38.2812H30.5157L35.6563 51.9531C35.8751 52.6094 36.5313 53.0469 37.1876 53.0469C37.4063 53.0469 37.6251 53.0469 37.7344 52.9375C38.6094 52.6094 39.0469 51.625 38.7188 50.8594ZM18.8126 35L24.0626 21.1094L29.3126 35H18.8126Z" fill="#231F20"/>
<path opacity="0.2" d="M57.9683 53.0469H49.2183C44.0776 53.0469 39.9214 48.8907 39.9214 43.75C39.9214 38.7188 43.9683 35 49.2183 35H56.3276V33.9063C56.3276 32.1563 55.7808 30.9532 54.687 30.0782C51.9526 27.8907 46.0464 28.5469 44.0776 28.9844C43.2026 29.2032 42.3276 28.6563 42.1089 27.7813C41.8901 26.9063 42.437 26.0313 43.312 25.8125C43.6401 25.7032 52.062 23.8438 56.6558 27.5625C58.5151 29.0938 59.4995 31.2813 59.4995 34.0157V51.5157C59.6089 52.2813 58.8433 53.0469 57.9683 53.0469ZM49.2183 38.2813C45.7183 38.2813 43.2026 40.5782 43.2026 43.75C43.2026 47.0313 45.937 49.7657 49.2183 49.7657H56.3276V38.2813H49.2183Z" fill="#231F20"/>
<path d="M10.9375 49.2188L24.0625 14.2188L37.1875 49.2188" stroke="white" stroke-width="5.9175" stroke-miterlimit="10" stroke-linecap="round" stroke-linejoin="round"/>
<path d="M17.5 34.4531H30.625" stroke="white" stroke-width="5.9175" stroke-miterlimit="10" stroke-linecap="round" stroke-linejoin="round"/>
<path d="M43.75 25.1565C43.75 25.1565 57.9688 21.9846 57.9688 31.719V49.219H49.2188C44.9531 49.219 41.5625 45.8284 41.5625 41.5628C41.5625 37.2971 44.9531 34.4534 49.2188 34.4534H56.875" stroke="white" stroke-width="5.9175" stroke-miterlimit="10" stroke-linecap="round" stroke-linejoin="round"/>
</svg>
