<svg width="656" height="528" viewBox="0 0 656 528" fill="none" xmlns="http://www.w3.org/2000/svg">
<path fill-rule="evenodd" clip-rule="evenodd" d="M493.566 527.998C458.762 527.998 424.195 527.998 389.629 528C387.838 528 386.009 527.974 385.118 526.933C384.498 526.209 386.445 524.946 387.948 525.002C389.18 525.047 390.413 525.118 391.646 525.119C478.694 525.124 565.742 525.123 652.79 525.139C653.559 525.139 654.632 525.241 655.027 525.524C655.61 525.942 656.21 526.915 655.928 527.037C654.877 527.493 653.47 527.957 652.193 527.96C628.518 528.012 604.842 527.998 581.166 527.998C552.045 527.998 522.924 527.998 493.566 527.998Z" fill="white"/>
<path fill-rule="evenodd" clip-rule="evenodd" d="M340.882 527.994C322.413 527.994 304.124 527.995 285.836 527.991C284.843 527.991 283.784 528.142 283.247 527.205C282.631 526.131 283.184 525.244 284.733 525.028C285.141 524.971 285.576 525.019 285.999 525.019C314.125 525.019 342.252 525.019 370.379 525.019C372.653 525.019 373.283 525.542 372.891 527.144C372.84 527.352 372.627 527.659 372.412 527.701C371.638 527.849 370.831 527.981 370.035 527.982C360.378 528 350.721 527.994 340.882 527.994Z" fill="white"/>
<path fill-rule="evenodd" clip-rule="evenodd" d="M174.29 527.994C118.676 527.994 63.6079 527.995 8.53957 527.991C5.54902 527.991 2.36037 528.142 0.742808 527.205C-1.1124 526.131 0.554317 525.244 5.21879 525.028C6.44792 524.971 7.7567 525.019 9.02885 525.019C93.7215 525.019 178.414 525.019 263.107 525.019C269.955 525.019 271.854 525.542 270.672 527.144C270.519 527.352 269.875 527.659 269.231 527.701C266.898 527.849 264.468 527.981 262.073 527.982C232.994 528 203.915 527.994 174.29 527.994Z" fill="white"/>
<path fill-rule="evenodd" clip-rule="evenodd" d="M557.738 235.49C562.346 230.081 565.464 223.453 564.943 216.025C563.442 194.625 533.651 199.333 527.857 210.134C522.062 220.935 522.75 248.333 530.24 250.263C533.226 251.033 539.589 249.147 546.065 245.244L542 274H566L557.738 235.49Z" fill="#B28B67"/>
<path fill-rule="evenodd" clip-rule="evenodd" d="M575.407 208.902C576.182 208.134 576.605 207.037 576.97 205.996C577.35 204.914 577.719 203.822 577.972 202.696C578.475 200.447 578.48 197.86 576.876 196.114C575.589 194.713 573.658 194.085 571.876 193.948C570.689 193.857 569.469 194.024 568.331 194.398C567.202 194.769 566.229 195.509 565.134 195.968C565.092 193.544 564.677 191.008 563.447 188.938C562.264 186.947 560.378 185.829 558.229 185.534C556.024 185.23 553.846 185.746 551.872 186.814C551.378 187.081 550.888 187.361 550.419 187.678C550.027 187.944 549.619 188.264 549.159 188.372C548.645 188.492 548.391 188.196 548.058 187.821C547.666 187.382 547.226 186.996 546.76 186.653C544.698 185.137 541.993 184.514 539.604 185.423C538.504 185.841 537.433 186.552 536.687 187.531C536.021 188.404 535.546 189.789 534.628 190.398C534.238 190.656 533.963 190.314 533.608 190.061C533.075 189.681 532.566 189.262 532.027 188.892C531.269 188.373 530.448 187.985 529.57 187.781C528.283 187.484 526.506 187.553 526.138 189.238C526 189.871 526.106 190.548 526.15 191.186C526.211 192.061 526.275 192.936 526.351 193.811C526.409 194.474 526.482 195.115 526.607 195.767C526.674 196.115 526.883 196.763 526.734 197.111C526.548 197.546 525.689 197.298 525.321 197.313C524.596 197.343 523.868 197.47 523.197 197.78C522.678 198.021 522.131 198.374 521.912 198.969C521.777 199.335 521.813 199.711 521.876 200.088C521.953 200.539 521.865 200.779 521.808 201.235C520.834 200.755 517.459 199.69 517.035 201.435C516.893 202.016 517.215 202.673 517.461 203.163C517.892 204.023 518.457 204.809 519.034 205.558C520.239 207.121 521.677 208.47 523.224 209.623C521.411 210.429 520.938 212.806 522.507 214.222C523.2 214.848 524.132 214.987 525.006 214.947C525.326 214.932 525.787 214.809 526.039 214.865C526.175 214.895 526.32 215.01 526.507 215.022C527.741 215.107 529.134 214.81 530.34 214.536C532.488 214.048 534.523 213.03 536.184 211.48C536.61 211.082 536.962 210.853 537.536 210.859C538.038 210.864 538.532 211.002 539.034 211.015C540.362 211.048 541.56 210.399 542.794 209.967C542.87 211.633 543.345 213.469 544.026 214.969C544.582 216.191 545.743 216.369 546.884 216.476C550.533 216.82 554.194 216.437 557.848 216.442C554.311 217.241 550.657 217.571 547.152 218.511C545.568 218.936 546.778 220.004 547.455 220.744C548.57 221.963 549.4 223.474 549.975 225.065C551.705 222.81 554.763 221.324 557.472 222.017C560.465 222.782 562.573 226.83 560.659 229.74C559.547 231.429 557.541 232.081 555.871 232.807C557.173 234.161 557.489 236.161 558.273 237.846C558.659 238.677 559.202 239.617 560.067 239.906C560.387 240.013 560.762 240.022 561.014 240.283C561.327 240.606 561.401 240.967 561.801 241.245C563.394 242.352 565.883 242.267 567.295 240.821C568.572 239.514 568.24 237.445 567.173 236.12C568.871 235.412 571.964 234.502 571.289 231.857C574.968 231.613 583.9 225.646 578.963 221.286C581.673 219.755 584.162 216.012 582.422 212.713C581.081 210.172 577.964 209.036 575.407 208.902Z" fill="#191847"/>
<path fill-rule="evenodd" clip-rule="evenodd" d="M609.377 399H532.123L522 523H637L609.377 399Z" fill="#C5CFD6"/>
<path fill-rule="evenodd" clip-rule="evenodd" d="M609.377 399H585.617L571.396 523H637L609.377 399Z" fill="black" fill-opacity="0.1"/>
<path fill-rule="evenodd" clip-rule="evenodd" d="M444.047 377.756C435.81 372.81 421.99 379.165 422 386.238C422.028 407.403 441.343 507.151 442.352 513.457C443.36 519.762 454.163 521.428 454.792 513.477C455.793 500.827 457.653 457.033 455.792 436.763C455.024 428.395 454.197 420.427 453.383 413.318C463.518 431.621 479.193 457.826 500.407 491.934L511.923 486.672C502.88 456.876 495.464 435.841 489.676 423.567C479.767 402.55 470.475 384.552 466.564 378.212C460.412 368.24 449.704 371.719 444.047 377.756Z" fill="#B28B67"/>
<path fill-rule="evenodd" clip-rule="evenodd" d="M511.1 470.125L471.572 376.487C462.103 361.255 435.554 379.587 438.783 388.422C446.114 408.479 483.4 473.414 485.584 479.39L511.1 470.125Z" fill="#699BB7"/>
<path fill-rule="evenodd" clip-rule="evenodd" d="M513.296 480.767C515.758 482.794 517.359 484.45 518.101 485.734C519.002 487.296 520.058 489.725 521.267 493.021C519.456 494.067 503.174 503.467 472.422 521.222C468.73 517.759 468.155 515.07 470.696 513.157C473.238 511.243 475.335 509.629 476.988 508.315L493.848 485.087C494.172 484.64 494.798 484.54 495.245 484.865C495.252 484.87 495.26 484.876 495.267 484.882L498.77 487.579C501.984 487.299 504.382 486.702 505.965 485.788C507.251 485.045 508.727 483.501 510.394 481.154C511.033 480.253 512.281 480.041 513.182 480.681C513.221 480.708 513.259 480.737 513.296 480.767Z" fill="#E4E4E4"/>
<path fill-rule="evenodd" clip-rule="evenodd" d="M457.322 508.402C458.441 511.388 459 513.623 459 515.106C459 516.909 458.7 519.54 458.099 523C456.007 523 437.206 523 401.697 523C400.231 518.155 401.077 515.539 404.235 515.152C407.393 514.766 410.016 514.417 412.105 514.106L438.32 502.419C438.824 502.194 439.416 502.421 439.641 502.925C439.644 502.934 439.648 502.942 439.652 502.951L441.337 507.039C444.26 508.403 446.636 509.085 448.463 509.085C449.948 509.085 451.999 508.485 454.616 507.286C455.62 506.825 456.807 507.266 457.267 508.27C457.287 508.313 457.305 508.357 457.322 508.402Z" fill="#E4E4E4"/>
<path fill-rule="evenodd" clip-rule="evenodd" d="M419.23 393.433C419.23 420 431.846 481.97 431.854 487.82L459 487.841C455.027 432.545 453.618 404.6 454.773 404.004C456.507 403.111 525.824 410.925 546.614 410.925C576.592 410.925 588.994 392.02 590 357H530.614C518.522 358.294 455.451 371.015 432.028 375.388C422 377.261 419.23 386.115 419.23 393.433Z" fill="#77B3D4"/>
<path fill-rule="evenodd" clip-rule="evenodd" d="M521.362 294.7L486.653 275.69C480.881 268.836 475.193 263.512 469.591 259.72C467.88 259.005 464.886 258.573 467.686 263.542C470.485 268.51 473.206 273.863 471.78 275.394C470.354 276.924 466.797 274.786 465.096 277.329C463.961 279.025 470.037 281.704 483.324 285.365L508.545 308.458L521.362 294.7ZM467 310.74L451.754 302.364C449.615 294.224 447.057 290.128 444.082 290.077C441.796 289.014 445.777 299.3 441.444 298.408C437.111 297.516 426.536 289.651 424.714 291.248C422.018 293.61 424.422 300.865 427.254 304.473C432.547 311.218 436.93 313.524 447.762 316.544C453.426 318.124 459.549 321.289 466.132 326.04L467 310.74Z" fill="#997659"/>
<path fill-rule="evenodd" clip-rule="evenodd" d="M538.266 290.465C526.108 290.337 509.896 287.769 492.598 276.789L485.804 291.939C497.736 303.78 514.514 313.51 529.184 313.098C540.745 312.773 546.653 298.789 538.266 290.465Z" fill="#3C5E73"/>
<path fill-rule="evenodd" clip-rule="evenodd" d="M521.896 314.761C508.989 317.98 487.345 314.184 456.964 303.373C449.429 318.964 445.945 330.078 446.514 336.717C472.576 350.331 494.914 356.401 513.317 356.802C512.732 367.721 514.061 378.112 518.526 387.606C527.706 407.124 581.455 389.048 599.527 392.606C610.845 355.851 588.962 340.914 588.945 317.397C588.925 291.642 568.246 252 565.203 252H537.456C535.926 271.669 528.22 293.346 521.896 314.761Z" fill="#4E7891"/>
<path fill-rule="evenodd" clip-rule="evenodd" d="M136.417 144.761C131.611 139.121 128.359 132.208 128.902 124.462C130.468 102.143 161.536 107.053 167.58 118.318C173.623 129.582 172.905 158.155 165.095 160.169C161.98 160.971 155.344 159.005 148.591 154.934L152.83 184.923H127.8L136.417 144.761Z" fill="#DCCAB9"/>
<path fill-rule="evenodd" clip-rule="evenodd" d="M156.541 119.951C153.145 121.851 150.727 125.411 147.818 130.081C147.109 129.803 146.337 129.65 145.53 129.65C142.074 129.65 139.272 132.451 139.272 135.907C139.272 137.661 139.994 139.247 141.157 140.383C139.709 142.427 138.087 144.562 136.227 146.765C129.289 142.602 124.128 130.469 130.753 118.756C136.453 95.2941 168.753 109.857 174.967 105.9C176.326 114.414 171.945 121.278 156.541 119.951Z" fill="white"/>
<path fill-rule="evenodd" clip-rule="evenodd" d="M126.792 275.462L177.98 405.018L212.311 514.546H225.868L173.382 275.462L126.792 275.462Z" fill="#DCCAB9"/>
<path fill-rule="evenodd" clip-rule="evenodd" d="M116.485 275.462C115.94 320.989 107.991 382.283 106.721 385.121C105.874 387.013 76.646 411.072 19.0361 457.299L28.3734 467.291C96.3477 427.657 131.908 405.198 135.053 399.911C139.771 391.982 155.132 319.017 167.465 275.462H116.485Z" fill="#DCCAB9"/>
<path fill-rule="evenodd" clip-rule="evenodd" d="M17.7874 453.964C14.6515 455.072 12.4913 456.123 11.3068 457.117C9.86611 458.326 7.96523 460.33 5.60411 463.129C7.00646 464.8 19.6096 479.82 43.4136 508.189C48.2673 506.111 49.79 503.682 47.9817 500.9C46.1735 498.118 44.6937 495.788 43.5422 493.911L35.3053 465.133C35.1468 464.58 34.5695 464.259 34.0157 464.418C34.0063 464.42 33.9968 464.423 33.9874 464.426L29.5922 465.82C26.5429 464.399 24.4056 462.958 23.1804 461.498C22.1849 460.312 21.2893 458.272 20.4936 455.377C20.1882 454.266 19.0402 453.614 17.9294 453.919C17.8816 453.932 17.8342 453.947 17.7874 453.964Z" fill="#E4E4E4"/>
<path fill-rule="evenodd" clip-rule="evenodd" d="M206.76 509.49C205.593 512.604 205.01 514.935 205.01 516.481C205.01 518.362 205.323 521.106 205.95 524.714C208.131 524.714 227.738 524.714 264.771 524.714C266.299 519.661 265.417 516.933 262.124 516.53C258.83 516.127 256.095 515.763 253.916 515.438L226.577 503.25C226.051 503.016 225.434 503.252 225.2 503.778C225.196 503.787 225.192 503.796 225.188 503.805L223.431 508.068C220.382 509.491 217.905 510.202 215.998 510.202C214.45 510.202 212.311 509.576 209.582 508.325C208.535 507.845 207.297 508.305 206.817 509.352C206.796 509.398 206.777 509.443 206.76 509.49Z" fill="#E4E4E4"/>
<path fill-rule="evenodd" clip-rule="evenodd" d="M161.208 503.265L225.664 496.269L177.895 275.462H120.164L161.208 503.265Z" fill="#3C5E73"/>
<path fill-rule="evenodd" clip-rule="evenodd" d="M32.3687 441.179L74.6477 491.222C119.179 442.586 145.141 410.851 152.534 396.017C159.926 381.182 166.572 340.998 172.47 275.462H107.476C104.254 333.117 102.082 363.286 100.96 365.969C99.8388 368.652 76.9748 393.722 32.3687 441.179Z" fill="#4E7891"/>
<path fill-rule="evenodd" clip-rule="evenodd" d="M220.887 262.856L251.537 292.563C260.455 296.342 267.762 300.515 273.458 305.083C274.739 306.618 276.133 309.559 270.106 308.243C264.08 306.927 257.681 305.811 256.548 307.759C255.415 309.706 258.753 312.69 256.66 315.239C255.264 316.938 250.571 311.533 242.579 299.026L210.708 280.356L220.887 262.856ZM71.0114 235.969L94.7034 236.058C76.6588 294.143 67.0802 324.556 65.9675 327.296C63.4639 333.46 68.7618 342.849 71.0274 347.894C63.6484 351.175 64.4347 339.025 55.1263 343.328C46.63 347.255 40.1669 354.371 30.3507 348.353C29.1439 347.614 27.8214 344.828 31.0167 342.651C38.9775 337.228 50.4494 327.736 51.9994 324.611C54.1132 320.351 60.4505 290.803 71.0114 235.969Z" fill="#DCCAB9"/>
<path fill-rule="evenodd" clip-rule="evenodd" d="M143.205 169.194L152.561 167.6C167.299 219.362 243.024 254.646 247.672 273.996C249.377 281.092 244.237 284.679 246.892 286.841L234.731 295.685C232.672 293.298 228.277 297.665 219.1 294.61C209.923 291.556 143.205 230.485 143.205 169.194Z" fill="#699BB7"/>
<path fill-rule="evenodd" clip-rule="evenodd" d="M158.943 176.076C157.864 244.605 197.737 262.086 188.855 289.577C181.521 312.279 111.323 336.684 99.1752 314.431C94.258 305.423 92.0271 294.528 91.774 282.684C88.6693 291.784 86.2139 299.617 84.4077 306.185C81.2917 317.515 69.2118 319.316 69.2118 323.681L53.2966 319.316C54.3761 313.387 46.8733 310.499 48.885 297.251C57.8986 237.894 82.1164 194.867 121.539 168.171L121.955 162.248C122.121 159.952 124.113 158.22 126.41 158.376L155.863 160.423C158.162 160.579 159.895 162.571 159.736 164.87C159.736 164.87 159.735 164.872 159.732 164.873L158.943 176.076Z" fill="#77B3D4"/>
<circle cx="349" cy="289" r="17" fill="#3C5E73"/>
<path d="M341.432 297.192C340.936 297.192 340.544 297.056 340.256 296.784C339.984 296.496 339.848 296.088 339.848 295.56V281.712C339.848 281.184 339.984 280.784 340.256 280.512C340.544 280.224 340.952 280.08 341.48 280.08H349.856C350.272 280.08 350.584 280.184 350.792 280.392C351 280.6 351.104 280.896 351.104 281.28C351.104 281.68 351 281.992 350.792 282.216C350.584 282.424 350.272 282.528 349.856 282.528H342.92V287.304H349.352C349.752 287.304 350.056 287.408 350.264 287.616C350.488 287.824 350.6 288.12 350.6 288.504C350.6 288.904 350.488 289.216 350.264 289.44C350.056 289.648 349.752 289.752 349.352 289.752H342.92V295.56C342.92 296.648 342.424 297.192 341.432 297.192ZM355.341 297.192C354.861 297.192 354.485 297.064 354.213 296.808C353.957 296.536 353.829 296.152 353.829 295.656V287.52H352.725C352.341 287.52 352.045 287.424 351.837 287.232C351.629 287.024 351.525 286.744 351.525 286.392C351.525 286.024 351.629 285.744 351.837 285.552C352.045 285.36 352.341 285.264 352.725 285.264H354.693L353.829 286.056V285.24C353.829 283.592 354.245 282.36 355.077 281.544C355.909 280.712 357.109 280.224 358.677 280.08L359.493 280.008C359.813 279.976 360.069 280.032 360.261 280.176C360.453 280.304 360.581 280.48 360.645 280.704C360.709 280.912 360.717 281.128 360.669 281.352C360.621 281.576 360.517 281.776 360.357 281.952C360.213 282.112 360.021 282.2 359.781 282.216L359.445 282.24C358.533 282.304 357.869 282.536 357.453 282.936C357.037 283.336 356.829 283.944 356.829 284.76V285.648L356.445 285.264H358.869C359.253 285.264 359.549 285.36 359.757 285.552C359.965 285.744 360.069 286.024 360.069 286.392C360.069 286.744 359.965 287.024 359.757 287.232C359.549 287.424 359.253 287.52 358.869 287.52H356.829V295.656C356.829 296.68 356.333 297.192 355.341 297.192Z" fill="white"/>
<circle cx="393" cy="243" r="29" fill="#4E7891"/>
<path d="M378.22 255C377.428 255 376.816 254.796 376.384 254.388C375.976 253.956 375.772 253.344 375.772 252.552V232.068C375.772 231.276 375.976 230.676 376.384 230.268C376.816 229.836 377.428 229.62 378.22 229.62H391.072C391.672 229.62 392.128 229.776 392.44 230.088C392.776 230.4 392.944 230.844 392.944 231.42C392.944 232.02 392.776 232.488 392.44 232.824C392.128 233.136 391.672 233.292 391.072 233.292H380.2V240.276H390.28C390.904 240.276 391.372 240.432 391.684 240.744C391.996 241.056 392.152 241.512 392.152 242.112C392.152 242.712 391.996 243.168 391.684 243.48C391.372 243.792 390.904 243.948 390.28 243.948H380.2V251.328H391.072C391.672 251.328 392.128 251.484 392.44 251.796C392.776 252.108 392.944 252.564 392.944 253.164C392.944 253.764 392.776 254.22 392.44 254.532C392.128 254.844 391.672 255 391.072 255H378.22ZM405.391 255.36C403.399 255.36 401.683 254.988 400.243 254.244C398.803 253.5 397.687 252.444 396.895 251.076C396.127 249.708 395.743 248.088 395.743 246.216C395.743 244.392 396.115 242.796 396.859 241.428C397.627 240.06 398.671 238.992 399.991 238.224C401.335 237.432 402.859 237.036 404.563 237.036C405.811 237.036 406.927 237.24 407.911 237.648C408.919 238.056 409.771 238.644 410.467 239.412C411.187 240.18 411.727 241.116 412.087 242.22C412.471 243.3 412.663 244.524 412.663 245.892C412.663 246.324 412.507 246.66 412.195 246.9C411.907 247.116 411.487 247.224 410.935 247.224H399.379V244.632H409.495L408.919 245.172C408.919 244.068 408.751 243.144 408.415 242.4C408.103 241.656 407.635 241.092 407.011 240.708C406.411 240.3 405.655 240.096 404.743 240.096C403.735 240.096 402.871 240.336 402.151 240.816C401.455 241.272 400.915 241.932 400.531 242.796C400.171 243.636 399.991 244.644 399.991 245.82V246.072C399.991 248.04 400.447 249.516 401.359 250.5C402.295 251.46 403.663 251.94 405.463 251.94C406.087 251.94 406.783 251.868 407.551 251.724C408.343 251.556 409.087 251.28 409.783 250.896C410.287 250.608 410.731 250.488 411.115 250.536C411.499 250.56 411.799 250.692 412.015 250.932C412.255 251.172 412.399 251.472 412.447 251.832C412.495 252.168 412.423 252.516 412.231 252.876C412.063 253.236 411.763 253.548 411.331 253.812C410.491 254.34 409.519 254.736 408.415 255C407.335 255.24 406.327 255.36 405.391 255.36Z" fill="white"/>
<circle cx="311.5" cy="224.5" r="30.5" fill="#5B89A5"/>
<path d="M292.93 236C292.182 236 291.604 235.807 291.196 235.422C290.811 235.014 290.618 234.436 290.618 233.688V214.342C290.618 213.594 290.811 213.027 291.196 212.642C291.604 212.234 292.182 212.03 292.93 212.03H299.526C303.538 212.03 306.632 213.061 308.808 215.124C311.007 217.187 312.106 220.145 312.106 223.998C312.106 225.925 311.823 227.636 311.256 229.132C310.712 230.605 309.896 231.852 308.808 232.872C307.743 233.892 306.428 234.674 304.864 235.218C303.323 235.739 301.543 236 299.526 236H292.93ZM294.97 232.396H299.254C300.659 232.396 301.872 232.226 302.892 231.886C303.935 231.523 304.796 231.002 305.476 230.322C306.179 229.619 306.7 228.747 307.04 227.704C307.38 226.639 307.55 225.403 307.55 223.998C307.55 221.187 306.859 219.091 305.476 217.708C304.093 216.325 302.019 215.634 299.254 215.634H294.97V232.396ZM322.5 236.34C321.05 236.34 319.769 235.989 318.658 235.286C317.57 234.583 316.72 233.586 316.108 232.294C315.496 230.979 315.19 229.438 315.19 227.67C315.19 225.879 315.496 224.349 316.108 223.08C316.72 221.788 317.57 220.791 318.658 220.088C319.769 219.385 321.05 219.034 322.5 219.034C323.883 219.034 325.084 219.374 326.104 220.054C327.147 220.734 327.85 221.629 328.212 222.74H327.838V213.9C327.838 213.197 328.02 212.665 328.382 212.302C328.745 211.939 329.266 211.758 329.946 211.758C330.626 211.758 331.148 211.939 331.51 212.302C331.896 212.665 332.088 213.197 332.088 213.9V234.096C332.088 234.799 331.907 235.343 331.544 235.728C331.182 236.091 330.66 236.272 329.98 236.272C329.3 236.272 328.779 236.091 328.416 235.728C328.054 235.343 327.872 234.799 327.872 234.096V231.444L328.246 232.464C327.906 233.643 327.215 234.583 326.172 235.286C325.13 235.989 323.906 236.34 322.5 236.34ZM323.69 233.11C324.529 233.11 325.266 232.906 325.9 232.498C326.535 232.09 327.022 231.489 327.362 230.696C327.725 229.88 327.906 228.871 327.906 227.67C327.906 225.857 327.521 224.508 326.75 223.624C325.98 222.717 324.96 222.264 323.69 222.264C322.852 222.264 322.115 222.468 321.48 222.876C320.846 223.261 320.347 223.862 319.984 224.678C319.644 225.471 319.474 226.469 319.474 227.67C319.474 229.461 319.86 230.821 320.63 231.75C321.401 232.657 322.421 233.11 323.69 233.11Z" fill="white"/>
<circle cx="373" cy="167" r="20" fill="#6A9DBB"/>
<path d="M368.34 177.28C366.287 177.28 364.523 176.869 363.048 176.048C361.592 175.208 360.472 174.032 359.688 172.52C358.904 170.989 358.512 169.188 358.512 167.116C358.512 165.567 358.736 164.176 359.184 162.944C359.632 161.693 360.276 160.629 361.116 159.752C361.956 158.856 362.983 158.175 364.196 157.708C365.428 157.223 366.809 156.98 368.34 156.98C369.367 156.98 370.375 157.111 371.364 157.372C372.353 157.633 373.221 158.007 373.968 158.492C374.36 158.735 374.621 159.033 374.752 159.388C374.883 159.724 374.911 160.06 374.836 160.396C374.761 160.713 374.603 160.984 374.36 161.208C374.136 161.432 373.847 161.563 373.492 161.6C373.156 161.619 372.783 161.497 372.372 161.236C371.793 160.863 371.168 160.592 370.496 160.424C369.824 160.256 369.143 160.172 368.452 160.172C367.127 160.172 366.007 160.443 365.092 160.984C364.177 161.525 363.487 162.309 363.02 163.336C362.553 164.363 362.32 165.623 362.32 167.116C362.32 168.591 362.553 169.851 363.02 170.896C363.487 171.941 364.177 172.735 365.092 173.276C366.007 173.817 367.127 174.088 368.452 174.088C369.161 174.088 369.861 174.004 370.552 173.836C371.243 173.649 371.896 173.369 372.512 172.996C372.923 172.753 373.287 172.651 373.604 172.688C373.94 172.707 374.22 172.819 374.444 173.024C374.668 173.229 374.817 173.491 374.892 173.808C374.967 174.107 374.948 174.424 374.836 174.76C374.724 175.077 374.5 175.357 374.164 175.6C373.417 176.141 372.521 176.561 371.476 176.86C370.449 177.14 369.404 177.28 368.34 177.28ZM383.195 177.28C381.758 177.28 380.507 176.991 379.443 176.412C378.379 175.815 377.558 174.975 376.979 173.892C376.4 172.809 376.111 171.54 376.111 170.084C376.111 168.983 376.27 168.003 376.587 167.144C376.923 166.267 377.399 165.529 378.015 164.932C378.631 164.316 379.378 163.849 380.255 163.532C381.132 163.196 382.112 163.028 383.195 163.028C383.811 163.028 384.474 163.112 385.183 163.28C385.911 163.448 386.592 163.728 387.227 164.12C387.526 164.307 387.722 164.531 387.815 164.792C387.908 165.053 387.927 165.324 387.871 165.604C387.815 165.865 387.694 166.099 387.507 166.304C387.339 166.491 387.124 166.612 386.863 166.668C386.602 166.705 386.312 166.64 385.995 166.472C385.584 166.229 385.164 166.052 384.735 165.94C384.306 165.809 383.895 165.744 383.503 165.744C382.887 165.744 382.346 165.847 381.879 166.052C381.412 166.239 381.011 166.519 380.675 166.892C380.358 167.247 380.115 167.695 379.947 168.236C379.779 168.777 379.695 169.403 379.695 170.112C379.695 171.493 380.022 172.585 380.675 173.388C381.347 174.172 382.29 174.564 383.503 174.564C383.895 174.564 384.296 174.508 384.707 174.396C385.136 174.284 385.566 174.107 385.995 173.864C386.312 173.696 386.592 173.64 386.835 173.696C387.096 173.752 387.311 173.883 387.479 174.088C387.647 174.275 387.75 174.508 387.787 174.788C387.824 175.049 387.787 175.311 387.675 175.572C387.582 175.833 387.395 176.048 387.115 176.216C386.499 176.589 385.846 176.86 385.155 177.028C384.464 177.196 383.811 177.28 383.195 177.28Z" fill="white"/>
<circle cx="286" cy="163" r="16" fill="#71AAC9"/>
<path d="M275.9 170C275.46 170 275.12 169.887 274.88 169.66C274.653 169.42 274.54 169.08 274.54 168.64V157.26C274.54 156.82 274.653 156.487 274.88 156.26C275.12 156.02 275.46 155.9 275.9 155.9H280.7C281.687 155.9 282.527 156.047 283.22 156.34C283.913 156.633 284.44 157.053 284.8 157.6C285.173 158.147 285.36 158.8 285.36 159.56C285.36 160.413 285.113 161.133 284.62 161.72C284.127 162.307 283.453 162.7 282.6 162.9V162.6C283.587 162.747 284.353 163.12 284.9 163.72C285.447 164.32 285.72 165.1 285.72 166.06C285.72 167.313 285.293 168.287 284.44 168.98C283.6 169.66 282.427 170 280.92 170H275.9ZM277 168.06H280.6C281.507 168.06 282.173 167.887 282.6 167.54C283.027 167.18 283.24 166.647 283.24 165.94C283.24 165.22 283.027 164.687 282.6 164.34C282.173 163.993 281.507 163.82 280.6 163.82H277V168.06ZM277 161.88H280.26C281.14 161.88 281.793 161.713 282.22 161.38C282.66 161.033 282.88 160.527 282.88 159.86C282.88 159.193 282.66 158.693 282.22 158.36C281.793 158.013 281.14 157.84 280.26 157.84H277V161.88ZM293.71 170.2C292.883 170.2 292.156 169.993 291.53 169.58C290.916 169.167 290.51 168.613 290.31 167.92L290.53 167.42V168.88C290.53 169.293 290.423 169.613 290.21 169.84C289.996 170.053 289.696 170.16 289.31 170.16C288.91 170.16 288.603 170.053 288.39 169.84C288.176 169.613 288.07 169.293 288.07 168.88V157C288.07 156.587 288.176 156.273 288.39 156.06C288.603 155.847 288.91 155.74 289.31 155.74C289.71 155.74 290.016 155.847 290.23 156.06C290.456 156.273 290.57 156.587 290.57 157V162.2H290.33C290.543 161.547 290.956 161.02 291.57 160.62C292.183 160.22 292.896 160.02 293.71 160.02C294.576 160.02 295.33 160.227 295.97 160.64C296.61 161.053 297.11 161.64 297.47 162.4C297.83 163.147 298.01 164.047 298.01 165.1C298.01 166.14 297.83 167.047 297.47 167.82C297.11 168.58 296.603 169.167 295.95 169.58C295.31 169.993 294.563 170.2 293.71 170.2ZM293.01 168.3C293.503 168.3 293.936 168.18 294.31 167.94C294.683 167.7 294.97 167.347 295.17 166.88C295.383 166.4 295.49 165.807 295.49 165.1C295.49 164.033 295.263 163.24 294.81 162.72C294.356 162.187 293.756 161.92 293.01 161.92C292.516 161.92 292.083 162.04 291.71 162.28C291.336 162.507 291.043 162.86 290.83 163.34C290.63 163.807 290.53 164.393 290.53 165.1C290.53 166.153 290.756 166.953 291.21 167.5C291.663 168.033 292.263 168.3 293.01 168.3Z" fill="white"/>
<circle cx="323.5" cy="107.5" r="24.5" fill="#77B3D4"/>
<path d="M306.52 117.24C306.04 117.24 305.65 117.13 305.35 116.91C305.07 116.69 304.9 116.4 304.84 116.04C304.78 115.66 304.85 115.24 305.05 114.78L312.97 97.23C313.23 96.65 313.54 96.24 313.9 96C314.28 95.74 314.71 95.61 315.19 95.61C315.65 95.61 316.06 95.74 316.42 96C316.8 96.24 317.12 96.65 317.38 97.23L325.33 114.78C325.55 115.24 325.63 115.66 325.57 116.04C325.51 116.42 325.34 116.72 325.06 116.94C324.78 117.14 324.41 117.24 323.95 117.24C323.39 117.24 322.95 117.11 322.63 116.85C322.33 116.57 322.06 116.15 321.82 115.59L319.87 111.06L321.49 112.11H308.83L310.45 111.06L308.53 115.59C308.27 116.17 308 116.59 307.72 116.85C307.44 117.11 307.04 117.24 306.52 117.24ZM315.13 100.02L310.93 110.01L310.15 109.05H320.17L319.42 110.01L315.19 100.02H315.13ZM333.104 117.3C332.044 117.3 331.094 117.1 330.254 116.7C329.434 116.28 328.784 115.72 328.304 115.02C327.844 114.32 327.614 113.53 327.614 112.65C327.614 111.57 327.894 110.72 328.454 110.1C329.014 109.46 329.924 109 331.184 108.72C332.444 108.44 334.134 108.3 336.254 108.3H337.754V110.46H336.284C335.044 110.46 334.054 110.52 333.314 110.64C332.574 110.76 332.044 110.97 331.724 111.27C331.424 111.55 331.274 111.95 331.274 112.47C331.274 113.13 331.504 113.67 331.964 114.09C332.424 114.51 333.064 114.72 333.884 114.72C334.544 114.72 335.124 114.57 335.624 114.27C336.144 113.95 336.554 113.52 336.854 112.98C337.154 112.44 337.304 111.82 337.304 111.12V107.67C337.304 106.67 337.084 105.95 336.644 105.51C336.204 105.07 335.464 104.85 334.424 104.85C333.844 104.85 333.214 104.92 332.534 105.06C331.874 105.2 331.174 105.44 330.434 105.78C330.054 105.96 329.714 106.01 329.414 105.93C329.134 105.85 328.914 105.69 328.754 105.45C328.594 105.19 328.514 104.91 328.514 104.61C328.514 104.31 328.594 104.02 328.754 103.74C328.914 103.44 329.184 103.22 329.564 103.08C330.484 102.7 331.364 102.43 332.204 102.27C333.064 102.11 333.844 102.03 334.544 102.03C335.984 102.03 337.164 102.25 338.084 102.69C339.024 103.13 339.724 103.8 340.184 104.7C340.644 105.58 340.874 106.72 340.874 108.12V115.32C340.874 115.94 340.724 116.42 340.424 116.76C340.124 117.08 339.694 117.24 339.134 117.24C338.574 117.24 338.134 117.08 337.814 116.76C337.514 116.42 337.364 115.94 337.364 115.32V113.88H337.604C337.464 114.58 337.184 115.19 336.764 115.71C336.364 116.21 335.854 116.6 335.234 116.88C334.614 117.16 333.904 117.3 333.104 117.3Z" fill="white"/>
</svg>
